<svg xmlns="http://www.w3.org/2000/svg" width="18.522" height="20.718" viewBox="0 0 18.522 20.718">
  <g id="edit" transform="translate(-69.619 -291.628)">
    <path id="Path_963" data-name="Path 963" d="M11.389,17.289l-2.14.55a1.874,1.874,0,0,1-2.281-2.281l.049-.189H5.2a1.126,1.126,0,0,1,0-2.252H7.612a3.149,3.149,0,0,1,.729-1.141l.841-.841H5.2a1.126,1.126,0,0,1,0-2.252h6.23L13.417,6.9l-.06,0H5.2a1.126,1.126,0,1,1,0-2.252h8.153a1.126,1.126,0,0,1,1.126,1.126c0,.02,0,.04,0,.06L17.213,3.1a3.186,3.186,0,0,1,.728-.545V1.277A1.277,1.277,0,0,0,16.665,0H1.9A1.277,1.277,0,0,0,.62,1.277V19.442A1.277,1.277,0,0,0,1.9,20.718H16.665a1.277,1.277,0,0,0,1.277-1.277V11.356l-5.11,5.11A3.148,3.148,0,0,1,11.389,17.289Z" transform="translate(68.999 291.628)" fill="#e99000"/>
    <path id="Path_964" data-name="Path 964" d="M171.3,133.054a1.8,1.8,0,0,0-.469.823l-.55,2.14a.522.522,0,0,0,.636.636l2.14-.55a1.8,1.8,0,0,0,.823-.469l7.266-7.266-2.58-2.58Z" transform="translate(-93.007 171.506)" fill="#e99000"/>
  </g>
</svg>
