<svg xmlns="http://www.w3.org/2000/svg" width="47.06" height="56.813" viewBox="0 0 47.06 56.813">
  <g id="Group_29" data-name="Group 29" transform="translate(-234.304 -308.105)">
    <g id="Group_2" data-name="Group 2" transform="translate(236.34 310.142)">
      <g id="Group_1" data-name="Group 1" transform="translate(0 10.176)">
        <path id="Path_1" data-name="Path 1" d="M1095.846,244.546l-3.284,2.908c-3-.782-7.519-1.569-10.363-1.229a19.578,19.578,0,0,0-7.518,2.38,18.363,18.363,0,0,0-6.561,6.422,16.651,16.651,0,0,0-2.568,8.652,16.051,16.051,0,0,0,2.127,8.348,16.364,16.364,0,0,0,6.327,6.18,17.051,17.051,0,0,0,8.915,2.184,19.069,19.069,0,0,0,9.193-2.629,15.852,15.852,0,0,0,7.255-8.16,13.618,13.618,0,0,0-.118-10.266l-17.9,10.467-1.91-3.321,21.762-12.688q4.542,8,2.551,15.387t-9.848,11.907q-9.541,5.491-18.844,2.194a19.932,19.932,0,0,1-10.94-9.112,20.443,20.443,0,0,1-2.78-10.509,20.123,20.123,0,0,1,2.946-10.458,22.649,22.649,0,0,1,8.313-7.945,24.859,24.859,0,0,1,9.139-3.158C1084.917,241.672,1091.434,241.877,1095.846,244.546Z" transform="translate(-1061.341 -241.927)" fill="#e99000" stroke="#e99000" stroke-miterlimit="10" stroke-width="4"/>
      </g>
      <path id="Path_2" data-name="Path 2" d="M1065.14,254.442,1062.1,246.9a10.487,10.487,0,0,1,5.784-13.609h0a10.488,10.488,0,0,1,13.61,5.784l1.853,4.591" transform="translate(-1061.341 -232.534)" fill="none" stroke="#432267" stroke-linecap="round" stroke-miterlimit="10" stroke-width="4"/>
    </g>
  </g>
</svg>
