<svg xmlns="http://www.w3.org/2000/svg" width="20.022" height="20.982" viewBox="0 0 20.022 20.982">
  <g id="Group_288" data-name="Group 288" transform="translate(0.5 0.5)">
    <path id="Path_80" data-name="Path 80" d="M8.539,10.962V.734a.744.744,0,0,0-1.487,0V10.962a2.882,2.882,0,0,0,0,5.578v2.294a.744.744,0,0,0,1.487,0V16.539a2.883,2.883,0,0,0,0-5.578ZM7.8,15.16a1.41,1.41,0,1,1,1.41-1.409A1.411,1.411,0,0,1,7.8,15.16Z" transform="translate(1.715 0.208)" fill="#432267" stroke="#fff" stroke-width="1"/>
    <path id="Path_81" data-name="Path 81" d="M18.218,5.716a2.9,2.9,0,0,0-2.155-2.789V.959a.744.744,0,0,0-1.487,0V2.927a2.883,2.883,0,0,0,0,5.579V19.058a.744.744,0,1,0,1.487,0V8.506A2.9,2.9,0,0,0,18.218,5.716Zm-2.9,1.411A1.41,1.41,0,1,1,16.73,5.716,1.413,1.413,0,0,1,15.32,7.127Z" transform="translate(0.804 0.181)" fill="#432267" stroke="#fff" stroke-width="1"/>
    <path id="Path_82" data-name="Path 82" d="M1.015,2.478V.509a.744.744,0,0,0-1.487,0v1.97a2.882,2.882,0,0,0,0,5.578V18.608a.744.744,0,0,0,1.487,0V8.056a2.882,2.882,0,0,0,0-5.578Zm-.744,4.2a1.41,1.41,0,0,1,0-2.82,1.41,1.41,0,0,1,0,2.82Z" transform="translate(2.626 0.235)" fill="#432267" stroke="#fff" stroke-width="1"/>
  </g>
</svg>
