<svg xmlns="http://www.w3.org/2000/svg" width="41.756" height="41.756" viewBox="0 0 41.756 41.756">
  <g id="Group_387" data-name="Group 387" transform="translate(0 0)">
    <g id="Group_386" data-name="Group 386" transform="translate(0 0)">
      <g id="Path_967" data-name="Path 967" transform="translate(0 0)" fill="#432267">
        <path d="M 20.8778076171875 39.75561904907227 C 15.83536720275879 39.75561904907227 11.09472751617432 37.79198837280273 7.529177665710449 34.22643661499023 C 3.963637590408325 30.66088676452637 1.999997615814209 25.92025756835938 1.999997615814209 20.8778076171875 C 1.999997615814209 15.83536720275879 3.963637590408325 11.09472751617432 7.529177665710449 7.529177665710449 C 11.09472751617432 3.963637590408325 15.83536720275879 1.999997615814209 20.8778076171875 1.999997615814209 C 25.92025756835938 1.999997615814209 30.66088676452637 3.963637590408325 34.22643661499023 7.529177665710449 C 37.79198837280273 11.09472751617432 39.75561904907227 15.83536720275879 39.75561904907227 20.8778076171875 C 39.75561904907227 25.92025756835938 37.79198837280273 30.66088676452637 34.22643661499023 34.22643661499023 C 30.66088676452637 37.79198837280273 25.92025756835938 39.75561904907227 20.8778076171875 39.75561904907227 Z" stroke="none"/>
        <path d="M 20.8778076171875 3.999996185302734 C 16.36957740783691 3.999996185302734 12.13118743896484 5.755596160888672 8.943386077880859 8.943386077880859 C 5.755596160888672 12.13118743896484 3.999996185302734 16.36957740783691 3.999996185302734 20.8778076171875 C 3.999996185302734 25.38602828979492 5.755596160888672 29.62441635131836 8.943397521972656 32.81221771240234 C 12.13118743896484 36.00001907348633 16.36957740783691 37.75561904907227 20.8778076171875 37.75561904907227 C 25.38602828979492 37.75561904907227 29.62441635131836 36.00001907348633 32.81221771240234 32.81221771240234 C 36.00001907348633 29.62441635131836 37.75561904907227 25.38602828979492 37.75561904907227 20.8778076171875 C 37.75561904907227 16.36957740783691 36.00001907348633 12.13118743896484 32.81221771240234 8.943397521972656 C 29.62441635131836 5.755596160888672 25.38602828979492 3.999996185302734 20.8778076171875 3.999996185302734 M 20.8778076171875 -3.814697265625e-06 C 32.40829849243164 -3.814697265625e-06 41.75561904907227 9.347309112548828 41.75561904907227 20.8778076171875 C 41.75561904907227 32.40829849243164 32.40829849243164 41.75561904907227 20.8778076171875 41.75561904907227 C 9.347309112548828 41.75561904907227 -3.814697265625e-06 32.40829849243164 -3.814697265625e-06 20.8778076171875 C -3.814697265625e-06 9.347309112548828 9.347309112548828 -3.814697265625e-06 20.8778076171875 -3.814697265625e-06 Z" stroke="none" fill="#fff"/>
      </g>
    </g>
    <path id="Path_966" data-name="Path 966" d="M2.377,0H4.556A2.377,2.377,0,0,1,6.932,2.377V15.846c0,1.272-3.507,5.286-3.507,5.286a.243.243,0,0,1-.044,0l.02-2.91-.02,2.91S0,17.158,0,15.846V2.377A2.377,2.377,0,0,1,2.377,0Z" transform="translate(26.973 10.835) rotate(48)" fill="#fff"/>
  </g>
</svg>
