<svg xmlns="http://www.w3.org/2000/svg" width="139.818" height="169.303" viewBox="0 0 139.818 169.303">
  <g id="Group_29" data-name="Group 29" transform="translate(-232.341 -306.538)">
    <g id="Group_2" data-name="Group 2" transform="translate(236.34 310.142)">
      <g id="Group_1" data-name="Group 1" transform="translate(0 31.178)">
        <path id="Path_1" data-name="Path 1" d="M1167.067,249.951l-10.061,8.909c-9.2-2.4-23.037-4.807-31.751-3.764a59.988,59.988,0,0,0-23.037,7.293,56.265,56.265,0,0,0-20.1,19.678,51.021,51.021,0,0,0-7.867,26.509,49.181,49.181,0,0,0,6.516,25.58,50.138,50.138,0,0,0,19.385,18.934,52.245,52.245,0,0,0,27.316,6.692,58.431,58.431,0,0,0,28.169-8.056q16.262-9.361,22.23-25a41.725,41.725,0,0,0-.362-31.455l-54.854,32.073-5.853-10.174,66.678-38.877q13.916,24.517,7.817,47.146t-30.174,36.484q-29.233,16.825-57.739,6.722a61.071,61.071,0,0,1-33.52-27.92,62.631,62.631,0,0,1-8.518-32.2,61.654,61.654,0,0,1,9.026-32.043q8.927-14.818,25.47-24.345a76.171,76.171,0,0,1,28-9.676C1133.58,241.148,1153.547,241.775,1167.067,249.951Z" transform="translate(-1061.341 -241.927)" fill="#e99000" stroke="#e99000" stroke-miterlimit="10" stroke-width="8"/>
      </g>
      <path id="Path_2" data-name="Path 2" d="M1072.98,299.66l-9.324-23.11a32.132,32.132,0,0,1,17.722-41.7h0a32.134,32.134,0,0,1,41.7,17.723l5.677,14.068" transform="translate(-1061.341 -232.534)" fill="none" stroke="#fff" stroke-linecap="round" stroke-miterlimit="10" stroke-width="7"/>
    </g>
  </g>
</svg>
