<svg xmlns="http://www.w3.org/2000/svg" width="19.121" height="19.123" viewBox="0 0 19.121 19.123">
  <path id="home" d="M19.107,8.317h0l-7.8-7.8a1.76,1.76,0,0,0-2.49,0l-7.8,7.8-.008.008a1.76,1.76,0,0,0,1.171,3l.054,0h.311v5.74a2.063,2.063,0,0,0,2.061,2.06H7.66a.56.56,0,0,0,.56-.56v-4.5a.941.941,0,0,1,.94-.94h1.8a.941.941,0,0,1,.94.94v4.5a.56.56,0,0,0,.56.56h3.052a2.063,2.063,0,0,0,2.061-2.06v-5.74h.288a1.761,1.761,0,0,0,1.246-3Zm-.793,1.7a.636.636,0,0,1-.453.188h-.849a.56.56,0,0,0-.56.56v6.3a.941.941,0,0,1-.94.94H13.021c0-5.076-.37-7.241-3.306-7.241-1.136,0-2.615,2.164-2.615,3.3l3.675-4.746L8.613,8.828c-.518,0-3.264,4.09-3.264,4.09l4.832-4.607c0-.309-6.4,2.45-7.545,2.45-.009,0,3.676.886,3.667.886-.167,0,.915-4.418.8-4.536-.249-.249-5.542,2.246-5.293,2L7.1,10.1l4.8,2.713.654-2.612L9.608,1.307c.121-.121,3.115,17.058,3.286,17.058h3.773l.347-7.248,2.218-1.441-.919-.57,0,0a.641.641,0,0,1,0,.9Zm0,0" transform="translate(-0.5 0.001)" fill="#e99000"/>
</svg>
