<svg xmlns="http://www.w3.org/2000/svg" width="19.843" height="19.845" viewBox="0 0 19.843 19.845">
  <path id="home" d="M19.81,8.631l0,0L11.713.535a1.827,1.827,0,0,0-2.584,0L1.039,8.625l-.008.008a1.826,1.826,0,0,0,1.216,3.113l.056,0h.322v5.957a2.141,2.141,0,0,0,2.138,2.138H7.93a.581.581,0,0,0,.581-.581v-4.67a.977.977,0,0,1,.976-.975h1.868a.977.977,0,0,1,.975.975v4.67a.581.581,0,0,0,.581.581h3.167a2.141,2.141,0,0,0,2.138-2.138V11.749h.3A1.827,1.827,0,0,0,19.81,8.631Zm-.823,1.761a.66.66,0,0,1-.47.195h-.881a.581.581,0,0,0-.581.581v6.538a.976.976,0,0,1-.975.975H13.493V14.592a2.141,2.141,0,0,0-2.138-2.138H9.487a2.141,2.141,0,0,0-2.138,2.138v4.089H4.763a.977.977,0,0,1-.975-.975V11.167a.581.581,0,0,0-.581-.581H2.314a.663.663,0,0,1-.457-1.133h0L9.952,1.357a.664.664,0,0,1,.939,0l8.093,8.093,0,0a.666.666,0,0,1,0,.938Zm0,0" transform="translate(-0.5 0.001)" fill="#fff"/>
</svg>
