<svg xmlns="http://www.w3.org/2000/svg" width="18.889" height="17" viewBox="0 0 18.889 17">
  <g id="Icon_Credit_Card" data-name="Icon_Credit Card" transform="translate(-15 -15.5)">
    <g id="Group_329" data-name="Group 329" transform="translate(15 15.5)">
      <path id="Path_82" data-name="Path 82" d="M16.509,3.816,15.3,1.549A3.077,3.077,0,0,0,12.618,0a2.817,2.817,0,0,0-1.436.378l-6.271,3.4H3.022A3.031,3.031,0,0,0,0,6.8v7.178A3.031,3.031,0,0,0,3.022,17H15.867a3.031,3.031,0,0,0,3.022-3.022V6.8A3.044,3.044,0,0,0,16.509,3.816ZM12.089,2.04a.944.944,0,0,1,.529-.151,1.089,1.089,0,0,1,.982.6l.68,1.284h-5.4ZM17,13.978a1.137,1.137,0,0,1-1.133,1.133H3.022a1.137,1.137,0,0,1-1.133-1.133V6.8A1.137,1.137,0,0,1,3.022,5.667H15.867A1.137,1.137,0,0,1,17,6.8Z" transform="translate(0 0)" fill="#fff"/>
      <path id="Path_83" data-name="Path 83" d="M20.389,21.889H10.944A.935.935,0,0,1,10,20.944h0A.935.935,0,0,1,10.944,20h9.444a.935.935,0,0,1,.944.944h0A.96.96,0,0,1,20.389,21.889Z" transform="translate(-6.222 -12.444)" fill="#fff"/>
    </g>
  </g>
</svg>
