<svg id="Icon_MasterCard" xmlns="http://www.w3.org/2000/svg" width="42" height="30" viewBox="0 0 42 30">
  <path id="Path_68" data-name="Path 68" d="M45,35a4,4,0,0,1-4,4H7a4,4,0,0,1-4-4V13A4,4,0,0,1,7,9H41a4,4,0,0,1,4,4Z" transform="translate(-3 -9)" fill="#3f51b5" opacity="0"/>
  <path id="Path_69" data-name="Path 69" d="M40,24A10,10,0,1,1,30,14,10,10,0,0,1,40,24Z" transform="translate(-3 -9)" fill="#ffc107"/>
  <path id="Path_70" data-name="Path 70" d="M22.016,30a9.96,9.96,0,0,1-1.176-2h5.324a9.947,9.947,0,0,0,.637-2H20.2a9.9,9.9,0,0,1-.2-2h7a10.184,10.184,0,0,0-.2-2H20.2a9.963,9.963,0,0,1,.641-2h5.324a9.96,9.96,0,0,0-1.176-2H22.016a10.033,10.033,0,0,1,1.48-1.594A10,10,0,1,0,24.984,30Z" transform="translate(-3 -9)" fill="#ff3d00"/>
</svg>
