<svg xmlns="http://www.w3.org/2000/svg" width="16.937" height="17" viewBox="0 0 16.937 17">
  <g id="icons8_PayPal_1" transform="translate(-0.375 -0.125)">
    <path id="Path_92" data-name="Path 92" d="M3.367.125.375,13.824H4.336l.97-4.539H8.132a5.489,5.489,0,0,0,5.55-4.5A3.58,3.58,0,0,0,10.092.125ZM6.709,2.91H8.648A1.4,1.4,0,0,1,9.989,4.788,2.481,2.481,0,0,1,7.72,6.665H5.863Zm8.417.8a6.575,6.575,0,0,1-.144,1.341,7.19,7.19,0,0,1-1.568,3.239,2.483,2.483,0,0,1-2.208,1.671h-.041a7.248,7.248,0,0,1-3.033.64H6.379l-.743,3.487-.227,1.052H4.316l-.433,1.981H7.823l.97-4.539h2.826a5.513,5.513,0,0,0,5.57-4.5A3.53,3.53,0,0,0,15.126,3.715Z" fill="#bebebe"/>
  </g>
</svg>
