<svg id="Icon_Saved_Cards" data-name="Icon_Saved Cards" xmlns="http://www.w3.org/2000/svg" width="18.478" height="17" viewBox="0 0 18.478 17">
  <path id="Path_84" data-name="Path 84" d="M17.37,8.87V7.022a2.965,2.965,0,0,0-2.957-2.957H2.957A1.12,1.12,0,0,1,1.848,2.92,1.136,1.136,0,0,1,2.993,1.848h11.42a1.065,1.065,0,0,1,.961.591.939.939,0,0,0,.85.517.924.924,0,0,0,.813-1.367A2.907,2.907,0,0,0,14.413,0H2.957A2.965,2.965,0,0,0,0,2.957H0V14.043A2.965,2.965,0,0,0,2.957,17H14.413a2.965,2.965,0,0,0,2.957-2.957V12.2H15.522v1.848a1.112,1.112,0,0,1-1.109,1.109H2.957a1.112,1.112,0,0,1-1.109-1.109V5.691a2.7,2.7,0,0,0,1.109.222H14.413a1.112,1.112,0,0,1,1.109,1.109V8.87Z" fill="#bebebe"/>
  <g id="Group_330" data-name="Group 330" transform="translate(9.978 7.761)">
    <path id="Path_85" data-name="Path 85" d="M33.652,22.848V24.7h-4.8V22.848h4.8M33.911,21H28.589A1.577,1.577,0,0,0,27,22.589v2.365a1.577,1.577,0,0,0,1.589,1.589h5.322A1.577,1.577,0,0,0,35.5,24.954V22.589A1.577,1.577,0,0,0,33.911,21Z" transform="translate(-27 -21)" fill="#bebebe"/>
  </g>
</svg>
