<svg id="logout" xmlns="http://www.w3.org/2000/svg" width="22.963" height="23.567" viewBox="0 0 22.963 23.567">
  <path id="Path_961" data-name="Path 961" d="M.982,12.769a.982.982,0,0,1,.982.982v3.928a.983.983,0,0,0,.982.982H5.892V3.932A1.979,1.979,0,0,1,7.229,2.065l.291-.1H2.946a.983.983,0,0,0-.982.982V5.9A.982.982,0,0,1,0,5.9V2.95A2.95,2.95,0,0,1,2.946,0H13.5a.771.771,0,0,1,.105.022c.047,0,.092-.022.14-.022a1.966,1.966,0,0,1,1.964,1.964V19.643a1.979,1.979,0,0,1-1.337,1.867l-5.91,1.97a2.033,2.033,0,0,1-.609.091,1.966,1.966,0,0,1-1.964-1.964v-.982H2.946A2.95,2.95,0,0,1,0,17.679V13.751a.982.982,0,0,1,.982-.982Zm0,0" transform="translate(7.252 -0.004)" fill="#e99000"/>
  <path id="Path_962" data-name="Path 962" d="M277.62,110.881l3.928-3.928a.982.982,0,0,1,1.676.694v2.946h3.928a.982.982,0,1,1,0,1.964h-3.928V115.5a.982.982,0,0,1-1.676.694l-3.928-3.928a.981.981,0,0,1,0-1.388Zm0,0" transform="translate(-277.332 -101.756)" fill="#e99000"/>
</svg>
