<svg xmlns="http://www.w3.org/2000/svg" width="16.96" height="15.604" viewBox="0 0 16.96 15.604">
  <path id="loved" d="M827.4,1045.985a4.229,4.229,0,0,1,3.307,1.357,4.835,4.835,0,0,1,1.357,3.307,6.371,6.371,0,0,1-.424,2.2,9.961,9.961,0,0,1-1.611,2.459,30.413,30.413,0,0,1-2.12,2.29c-.594.594-1.7,1.526-3.053,2.8l-1.272,1.1-1.272-1.1c-1.866-1.611-3.138-2.883-3.986-3.731a15.235,15.235,0,0,1-2.2-2.883,6.219,6.219,0,0,1-1.018-3.223,4.633,4.633,0,0,1,4.664-4.664,4.821,4.821,0,0,1,3.816,1.781A5.016,5.016,0,0,1,827.4,1045.985Z" transform="translate(-815.1 -1045.9)" fill="#e99000"/>
</svg>
