<svg xmlns="http://www.w3.org/2000/svg" width="27.027" height="25.323" viewBox="0 0 27.027 25.323">
  <path id="path" d="M264.719,1013.972a13.3,13.3,0,0,1,9.595-3.672,13.852,13.852,0,0,1,9.595,3.672,11.48,11.48,0,0,1,3.919,8.99,12.138,12.138,0,0,1-3.919,8.99,13.087,13.087,0,0,1-9.595,3.672,13.853,13.853,0,0,1-9.595-3.672,12.27,12.27,0,0,1,0-17.979Zm9.459,17.979a9.741,9.741,0,0,0,8.108-4.052c0-1.14-.946-2.026-2.838-2.786a12.757,12.757,0,0,0-10.54,0c-1.892.76-2.838,1.646-2.838,2.786A9.427,9.427,0,0,0,274.178,1031.951Zm2.838-16.84a4.1,4.1,0,0,0-5.676,0,3.514,3.514,0,0,0,0,5.318,4.1,4.1,0,0,0,5.676,0,3.514,3.514,0,0,0,0-5.318Z" transform="translate(-260.8 -1010.3)" fill="#432267"/>
</svg>
