<svg xmlns="http://www.w3.org/2000/svg" width="16.931" height="16.931" viewBox="0 0 16.931 16.931">
  <path id="path" d="M827.375,1045.992a4.063,4.063,0,0,1,3.3,1.472,5.493,5.493,0,0,1,1.354,3.589,7.443,7.443,0,0,1-.423,2.392,10.96,10.96,0,0,1-1.609,2.669,32.1,32.1,0,0,1-2.116,2.484c-.593.644-1.693,1.656-3.048,3.036l-1.27,1.2-1.27-1.2c-1.862-1.748-3.132-3.128-3.979-4.049a16.451,16.451,0,0,1-2.2-3.128,7.17,7.17,0,0,1-1.016-3.5,5.086,5.086,0,0,1,1.354-3.589,4.3,4.3,0,0,1,3.3-1.472,4.668,4.668,0,0,1,3.809,1.932A4.84,4.84,0,0,1,827.375,1045.992Z" transform="translate(-815.1 -1045.9)" fill="#e99000"/>
</svg>
