<svg xmlns="http://www.w3.org/2000/svg" width="18.927" height="23.034" viewBox="0 0 18.927 23.034">
  <path id="path" d="M894.888,1117.015a9.581,9.581,0,0,1,6.578-2.315,9.918,9.918,0,0,1,6.578,2.315,7.352,7.352,0,0,1,2.685,5.672,8.715,8.715,0,0,1-.94,3.82,25.62,25.62,0,0,1-2.416,4.051c-.94,1.273-1.879,2.431-2.685,3.588a20.413,20.413,0,0,1-2.282,2.662l-1.074.926c-.268-.232-.537-.579-1.074-1.042a26.474,26.474,0,0,1-2.282-2.546c-1.074-1.273-2.014-2.431-2.819-3.588a29.74,29.74,0,0,1-2.282-3.935,9.52,9.52,0,0,1-1.074-3.936A8.839,8.839,0,0,1,894.888,1117.015Zm4.3,7.755a4.008,4.008,0,0,0,4.832,0,2.78,2.78,0,0,0,0-4.167,4.008,4.008,0,0,0-4.832,0,2.78,2.78,0,0,0,0,4.167Z" transform="translate(-891.8 -1114.7)" fill="#432267"/>
</svg>
