<svg xmlns="http://www.w3.org/2000/svg" width="14.092" height="12.965" viewBox="0 0 14.092 12.965">
  <path id="path" d="M825.317,1045.97a3.514,3.514,0,0,1,2.748,1.127,4.017,4.017,0,0,1,1.127,2.748,5.292,5.292,0,0,1-.352,1.832,8.278,8.278,0,0,1-1.339,2.043,25.237,25.237,0,0,1-1.761,1.9c-.493.493-1.409,1.268-2.537,2.325l-1.057.916-1.057-.916c-1.55-1.339-2.607-2.4-3.312-3.1a12.653,12.653,0,0,1-1.832-2.4,5.168,5.168,0,0,1-.846-2.678,3.849,3.849,0,0,1,3.875-3.875,4.005,4.005,0,0,1,3.171,1.48A4.168,4.168,0,0,1,825.317,1045.97Zm-3.1,10.992c1.057-.916,1.832-1.691,2.325-2.114a19.1,19.1,0,0,0,1.621-1.691,10.653,10.653,0,0,0,1.268-1.762,2.862,2.862,0,0,0,.352-1.48,2.408,2.408,0,0,0-2.466-2.466,2.536,2.536,0,0,0-1.55.493,2.668,2.668,0,0,0-.986,1.2h-1.339a2.281,2.281,0,0,0-.986-1.2,2.536,2.536,0,0,0-1.55-.493,2.408,2.408,0,0,0-2.466,2.466,3.787,3.787,0,0,0,.352,1.48,7.045,7.045,0,0,0,1.268,1.762,19.432,19.432,0,0,0,1.621,1.691c.493.423,1.268,1.2,2.325,2.114Z" transform="translate(-815.1 -1045.9)" fill="#432267"/>
</svg>
