<svg xmlns="http://www.w3.org/2000/svg" width="21.78" height="21.78" viewBox="0 0 21.78 21.78">
  <path id="path" d="M263.958,1013.458a10.352,10.352,0,0,1,7.732-3.158,10.778,10.778,0,0,1,7.732,3.158,10.189,10.189,0,0,1,3.158,7.732,10.779,10.779,0,0,1-3.158,7.732,10.188,10.188,0,0,1-7.732,3.158,10.779,10.779,0,0,1-7.732-3.158,11.044,11.044,0,0,1,0-15.464Zm7.623,15.464a7.7,7.7,0,0,0,6.534-3.485c0-.98-.762-1.742-2.287-2.4a9.692,9.692,0,0,0-8.494,0c-1.525.653-2.287,1.416-2.287,2.4A7.451,7.451,0,0,0,271.581,1028.922Zm2.287-14.484a3.158,3.158,0,1,0,.98,2.287A3.134,3.134,0,0,0,273.868,1014.438Z" transform="translate(-260.8 -1010.3)" fill="#e99000"/>
</svg>
