<svg xmlns="http://www.w3.org/2000/svg" width="16.55" height="16.55" viewBox="0 0 16.55 16.55">
  <path id="path" d="M499.131,918.293a.943.943,0,0,1,.919.919v3.218a.943.943,0,0,1-.919.919A15.7,15.7,0,0,1,483.5,907.719a.943.943,0,0,1,.919-.919h3.218a.943.943,0,0,1,.92.919,10.413,10.413,0,0,0,.552,3.31,1,1,0,0,1-.184.919l-2.023,2.023a13.827,13.827,0,0,0,6.069,6.069l2.023-2.023a.713.713,0,0,1,.919-.184A11.82,11.82,0,0,0,499.131,918.293Z" transform="translate(-483.5 -906.8)" fill="#432267"/>
</svg>
