<svg xmlns="http://www.w3.org/2000/svg" width="19.286" height="20.695" viewBox="0 0 19.286 20.695">
  <path id="path" d="M648.443,1011.262a2.159,2.159,0,0,1,1.5.618,2,2,0,0,1,.643,1.442v14.414a2,2,0,0,1-.643,1.441,2.158,2.158,0,0,1-1.5.618h-15a2.158,2.158,0,0,1-1.5-.618,1.994,1.994,0,0,1-.643-1.441v-14.414a2,2,0,0,1,.643-1.442,2.158,2.158,0,0,1,1.5-.618h4.5a3.377,3.377,0,0,1,1.178-1.544,2.994,2.994,0,0,1,3.643,0,3.377,3.377,0,0,1,1.179,1.544Zm-2.143,6.178v-2.059H635.586v2.059Zm0,4.118V1019.5H635.586v2.059Zm-3.214,4.118v-2.059h-7.5v2.059Zm-1.393-14.106a1.065,1.065,0,0,0-1.5,0,.969.969,0,0,0,0,1.442,1.065,1.065,0,0,0,1.5,0,.969.969,0,0,0,0-1.442Z" transform="translate(-631.3 -1009.1)" fill="#e99000"/>
</svg>
