<svg xmlns="http://www.w3.org/2000/svg" width="20.446" height="20.447" viewBox="0 0 20.446 20.447">
  <path id="settings" d="M19.325,8l-1.6-.2a8.051,8.051,0,0,0-.485-1.171l.989-1.274a1.266,1.266,0,0,0-.1-1.686L16.782,2.328a1.27,1.27,0,0,0-1.691-.108l-1.272.989a8.022,8.022,0,0,0-1.171-.485l-.2-1.6A1.276,1.276,0,0,0,11.178,0H9.269A1.276,1.276,0,0,0,8,1.122l-.2,1.6a7.929,7.929,0,0,0-1.171.485L5.355,2.219a1.267,1.267,0,0,0-1.686.1L2.328,3.664a1.27,1.27,0,0,0-.108,1.692l.989,1.273A7.957,7.957,0,0,0,2.724,7.8l-1.6.2A1.276,1.276,0,0,0,0,9.269v1.908a1.276,1.276,0,0,0,1.122,1.266l1.6.2a8.051,8.051,0,0,0,.485,1.171l-.989,1.274a1.266,1.266,0,0,0,.1,1.686l1.342,1.342a1.271,1.271,0,0,0,1.691.107l1.273-.989a7.865,7.865,0,0,0,1.171.485l.2,1.6a1.276,1.276,0,0,0,1.266,1.126h1.908a1.276,1.276,0,0,0,1.266-1.122l.2-1.6a8.051,8.051,0,0,0,1.171-.485l1.274.989a1.266,1.266,0,0,0,1.686-.1l1.342-1.342a1.269,1.269,0,0,0,.108-1.691l-.989-1.273a7.865,7.865,0,0,0,.485-1.171l1.6-.2a1.276,1.276,0,0,0,1.125-1.266V9.269A1.274,1.274,0,0,0,19.325,8Zm-9.1,6.48a4.26,4.26,0,1,1,4.26-4.26,4.265,4.265,0,0,1-4.26,4.26Z" fill="#e99000"/>
</svg>
