<svg id="shopping-bag" xmlns="http://www.w3.org/2000/svg" width="19.396" height="19.968" viewBox="0 0 19.396 19.968">
  <g id="Group_30" data-name="Group 30">
    <path id="Path_937" data-name="Path 937" d="M54.162,5.448a.169.169,0,0,0-.176-.144H50.812v-.78C50.812,2.029,48.518,0,45.7,0s-5.113,2.029-5.113,4.524V5.3H37.411a.169.169,0,0,0-.176.144L36,19.8a.145.145,0,0,0,.047.118.187.187,0,0,0,.129.05H55.22a.188.188,0,0,0,.129-.05A.146.146,0,0,0,55.4,19.8ZM42,4.524a3.731,3.731,0,0,1,7.406,0V5.3H42ZM41.29,9.672a1.673,1.673,0,0,1-1.763-1.56,1.479,1.479,0,0,1,1.058-1.43v1.43a.711.711,0,0,0,1.411,0V6.683a1.482,1.482,0,0,1,1.058,1.429A1.673,1.673,0,0,1,41.29,9.672Zm8.816,0a1.673,1.673,0,0,1-1.763-1.56A1.479,1.479,0,0,1,49.4,6.682v1.43a.711.711,0,0,0,1.411,0V6.683A1.482,1.482,0,0,1,51.87,8.112,1.673,1.673,0,0,1,50.107,9.672Z" transform="translate(-36.001)" fill="#e99000"/>
  </g>
</svg>
