<svg xmlns="http://www.w3.org/2000/svg" width="20.463" height="22.024" viewBox="0 0 20.463 22.024">
  <g id="shopping-bag" transform="translate(-36.001)">
    <g id="Group_30" data-name="Group 30" transform="translate(36.001)">
      <path id="Path_937" data-name="Path 937" d="M55.161,6.009a.181.181,0,0,0-.185-.159H51.627V4.99a5.411,5.411,0,0,0-10.79,0v.86H37.489a.181.181,0,0,0-.185.159L36,21.839a.164.164,0,0,0,.049.13.193.193,0,0,0,.136.055H56.278a.193.193,0,0,0,.136-.055.165.165,0,0,0,.049-.13ZM42.326,4.99a3.919,3.919,0,0,1,7.813,0v.86H42.326Zm-.744,5.678a1.8,1.8,0,0,1-1.86-1.721A1.626,1.626,0,0,1,40.837,7.37V8.947a.746.746,0,0,0,1.488,0V7.371a1.63,1.63,0,0,1,1.116,1.576A1.8,1.8,0,0,1,41.581,10.668Zm9.3,0a1.8,1.8,0,0,1-1.86-1.721A1.626,1.626,0,0,1,50.139,7.37V8.947a.746.746,0,0,0,1.488,0V7.371a1.63,1.63,0,0,1,1.116,1.576A1.8,1.8,0,0,1,50.883,10.668Z" transform="translate(-36.001)" fill="#fff"/>
    </g>
  </g>
</svg>
